<svg width="40" height="40" viewBox="0 0 40 40" fill="none" xmlns="http://www.w3.org/2000/svg">
<circle cx="20" cy="20" r="20" fill="#3867D6"/>
<path d="M22.6536 20L26.6337 16.0199C27.1221 15.5315 27.1221 14.7397 26.6337 14.2509L25.7491 13.3663C25.2607 12.8779 24.4689 12.8779 23.9801 13.3663L20 17.3464L16.0199 13.3663C15.5315 12.8779 14.7397 12.8779 14.2509 13.3663L13.3663 14.2509C12.8779 14.7393 12.8779 15.5311 13.3663 16.0199L17.3464 20L13.3663 23.9801C12.8779 24.4685 12.8779 25.2603 13.3663 25.7491L14.2509 26.6337C14.7393 27.1221 15.5315 27.1221 16.0199 26.6337L20 22.6536L23.9801 26.6337C24.4685 27.1221 25.2607 27.1221 25.7491 26.6337L26.6337 25.7491C27.1221 25.2607 27.1221 24.4689 26.6337 23.9801L22.6536 20Z" fill="white"/>
</svg>
