<svg width="16" height="16" viewBox="0 0 16 16" fill="none" xmlns="http://www.w3.org/2000/svg">
<path d="M6.80281 1.01876L7.59558 0.245547C7.93126 -0.0818489 8.47405 -0.0818489 8.80616 0.245547L15.7482 7.01288C16.0839 7.34028 16.0839 7.86968 15.7482 8.1936L8.80616 14.9644C8.47048 15.2918 7.92769 15.2918 7.59558 14.9644L6.80281 14.1912C6.46356 13.8603 6.47071 13.3205 6.8171 12.9966L11.1202 8.99815H0.857047C0.3821 8.99815 0 8.62548 0 8.16225V7.04771C0 6.58448 0.3821 6.21181 0.857047 6.21181H11.1202L6.8171 2.2134C6.46713 1.88949 6.45999 1.34964 6.80281 1.01876Z" fill="#216DD7"/>
</svg>
