<svg width="27" height="27" viewBox="0 0 27 27" fill="none" xmlns="http://www.w3.org/2000/svg">
<circle cx="13.5" cy="13.5" r="13.5" fill="#444444"/>
<path d="M15.2912 13.5L17.9778 10.8135C18.3074 10.4838 18.3074 9.94929 17.9778 9.61935L17.3807 9.02228C17.051 8.69261 16.5165 8.69261 16.1866 9.02228L13.5 11.7088L10.8135 9.02228C10.4838 8.69261 9.94929 8.69261 9.61935 9.02228L9.02228 9.61935C8.69261 9.94903 8.69261 10.4835 9.02228 10.8135L11.7088 13.5L9.02228 16.1866C8.69261 16.5162 8.69261 17.0508 9.02228 17.3807L9.61935 17.9778C9.94903 18.3074 10.4838 18.3074 10.8135 17.9778L13.5 15.2912L16.1866 17.9778C16.5162 18.3074 17.051 18.3074 17.3807 17.9778L17.9778 17.3807C18.3074 17.051 18.3074 16.5165 17.9778 16.1866L15.2912 13.5Z" fill="white" fill-opacity="0.6"/>
</svg>
