<svg width="99" height="25" viewBox="0 0 52 14" fill="none" xmlns="http://www.w3.org/2000/svg">
<path fill-rule="evenodd" clip-rule="evenodd" d="M18.9043 13.2069H26.5102V11.3133H20.8061V7.67377C20.8061 7.58995 20.8314 7.56393 20.9164 7.56393H26.5108V5.671H20.916C20.831 5.671 20.8057 5.64578 20.8057 5.56197V2.03103C20.8057 1.94639 20.831 1.92118 20.916 1.92118H26.5104V0.027832H18.9043V13.2069Z" fill="#226ED8"/>
<path fill-rule="evenodd" clip-rule="evenodd" d="M9.43433 13.2064H11.3721V3.7413C11.396 3.23916 11.6179 2.76668 11.9896 2.42647L12.1701 2.27851C13.34 1.39731 15.1393 2.21232 15.1393 3.96016V13.2066H17.0406V3.63227C17.0289 3.14159 16.9168 2.65845 16.7113 2.21232C16.5138 1.83125 16.2649 1.4788 15.9716 1.16472C15.9007 1.08952 15.8231 1.02093 15.7396 0.959788C15.6367 0.88253 15.605 0.82474 15.5058 0.754859C15.3277 0.624278 15.1402 0.506942 14.9448 0.403811C14.3883 0.123369 13.7706 -0.0149588 13.1472 0.00128158C12.5237 0.017522 11.9141 0.187817 11.3732 0.496845V0.024071H9.43433V13.2064Z" fill="#226ED8"/>
<path fill-rule="evenodd" clip-rule="evenodd" d="M0 9.45666C0 10.4493 0.244927 10.8785 0.646277 11.5443C0.67062 11.5905 0.702158 11.6327 0.73972 11.6691L0.942659 11.9048C1.00152 11.9662 1.00996 11.9914 1.05771 12.0453L1.28967 12.2503C2.15947 13.0241 2.79731 13.2057 4.02235 13.2057C5.64402 13.2057 7.25168 11.7507 7.52275 10.1747C7.57585 9.88968 7.6034 9.60047 7.60508 9.31054V0.0272217H5.6683V9.56589C5.65495 9.8046 5.5912 10.0378 5.48121 10.2504C4.54596 11.9103 2.52501 11.4389 2.02095 10.0352C1.94077 9.72746 1.9027 9.41037 1.90775 9.09251V0.0278346H0V9.45666Z" fill="#226ED8"/>
<path fill-rule="evenodd" clip-rule="evenodd" d="M28.3382 4.14183V9.09273C28.3382 9.95958 28.471 10.7473 28.9087 11.4021L29.2164 11.8238C29.5477 12.236 29.9639 12.5726 30.4369 12.8111C30.9098 13.0497 31.4287 13.1845 31.9584 13.2065C32.9815 13.2065 33.8147 13.0268 34.5639 12.3423C34.9796 11.9954 35.3245 11.5721 35.5796 11.0955C35.8395 10.5758 35.9649 9.99963 35.9443 9.41939H34.0431C34.0286 9.73969 33.9434 10.0529 33.7935 10.3367L33.4699 10.7408C33.3036 10.9231 33.101 11.0691 32.8752 11.1696C32.6493 11.27 32.4049 11.3227 32.1575 11.3244C31.9101 11.3261 31.665 11.2766 31.4378 11.1792C31.2106 11.0818 31.0061 10.9385 30.8373 10.7584C30.7532 10.6835 30.6785 10.5988 30.6148 10.5061C30.3886 10.1894 30.2712 9.80851 30.2799 9.42001V3.85042C30.2563 3.48161 30.3478 3.11455 30.5418 2.7995C30.7359 2.48445 31.0229 2.23681 31.3638 2.09048C31.6531 1.96041 31.9706 1.90461 32.2872 1.92815C32.6038 1.95169 32.9094 2.05384 33.1762 2.22525C33.4429 2.39667 33.6623 2.6319 33.8143 2.90945C33.9662 3.187 34.0459 3.49804 34.046 3.81415H35.9472C35.9722 2.9195 35.6614 2.04768 35.0755 1.36892C34.7285 0.974293 34.3109 0.647227 33.8439 0.404324C33.6456 0.298362 33.4364 0.213789 33.2201 0.152051C32.6864 0.00574276 32.1277 -0.0263116 31.5806 0.0580042C31.0336 0.14232 30.5108 0.341097 30.0465 0.641224C29.575 0.954022 29.1795 1.36756 28.8888 1.85174C28.7607 2.05068 28.6556 2.26337 28.5755 2.48579C28.3992 3.01858 28.3172 3.57782 28.3333 4.13855L28.3382 4.14183Z" fill="#226ED8"/>
<path fill-rule="evenodd" clip-rule="evenodd" d="M37.8086 1.92077H40.5505C40.6347 1.92077 40.66 1.94598 40.66 2.03061V13.2044H42.5631V1.92077H45.4137V0.027832H37.8086V1.92077Z" fill="#226ED8"/>
<path fill-rule="evenodd" clip-rule="evenodd" d="M50.9712 1.59309H50.4231V0.574378H51.0076C51.1357 0.594894 51.2516 0.662128 51.3327 0.762998C51.4137 0.863868 51.4542 0.991165 51.4462 1.12011C51.4332 1.24111 51.379 1.35402 51.2925 1.44006C51.2061 1.52611 51.0927 1.58011 50.9712 1.59309V1.59309ZM52.0003 2.61262V3.70489H51.4514C51.4514 2.21505 51.5749 2.13963 50.4282 2.13963V3.70489H49.8789V0.027832H51.1219C51.4717 0.027832 52.0001 0.503686 52.0001 0.97482C52.0001 1.49247 51.9589 1.45537 51.6708 1.8845C51.7735 1.97622 51.8559 2.08833 51.9126 2.21362C51.9692 2.3389 51.999 2.4746 51.9999 2.61201L52.0003 2.61262Z" fill="#226ED8"/>
<path fill-rule="evenodd" clip-rule="evenodd" d="M47.7534 0.574379H48.814V2.61201C48.814 3.30386 47.8067 3.37456 47.7909 2.64829H47.2419C47.2419 3.2889 47.7478 3.70428 48.1566 3.70428C48.3444 3.73295 48.5364 3.71043 48.7123 3.63911L49.0807 3.38685C49.2545 3.19308 49.3538 2.9444 49.3613 2.68476V0.027832H47.7536L47.7534 0.574379Z" fill="#226ED8"/>
</svg>
